<?xml version="1.0" ?><!DOCTYPE svg  PUBLIC '-//W3C//DTD SVG 1.1//EN'  'http://www.w3.org/Graphics/SVG/1.1/DTD/svg11.dtd'><svg id="Lager_1" style="enable-background:new -265 388.9 64 64;" version="1.1" viewBox="-265 388.9 64 64" xml:space="preserve" xmlns="http://www.w3.org/2000/svg" xmlns:xlink="http://www.w3.org/1999/xlink"><path d="M-225.5,412.4l4.5,4.5c0.1,0,0.2,0,0.3,0l1.9-1.9c0.9-0.9,1.4-2.2,1.4-3.4c0-1.2-0.5-2.5-1.4-3.4c-0.9-0.9-2.2-1.4-3.4-1.4  c-0.4,0-0.8,0.1-1.2,0.2c-0.6,0.1-1.1,0-1.6-0.4l0,0c-0.7-0.7-1.7-0.7-2.4,0l-1.5,1.3l-9.5,9.5l5.8-1.1l-11.1,9.9  c-0.1,0.2-0.2,0.3-0.3,0.5l-4.5,10.9c-0.1,0.2,0.1,0.3,0.3,0.3l10.8-4.5c0.2-0.1,0.4-0.2,0.5-0.4l9-9l4.3-4.3c0-0.1,0-0.2,0-0.3  l-4.5-4.5L-225.5,412.4z"/></svg>